<svg width="24" height="24" viewBox="0 0 24 24" fill="none" xmlns="http://www.w3.org/2000/svg">
<path d="M8.7 10.6999L15.3 7.29994M8.7 13.2999L15.3 16.6999M3 11.9999C3 12.7956 3.31607 13.5587 3.87868 14.1213C4.44129 14.6839 5.20435 14.9999 6 14.9999C6.79565 14.9999 7.55871 14.6839 8.12132 14.1213C8.68393 13.5587 9 12.7956 9 11.9999C9 11.2043 8.68393 10.4412 8.12132 9.87862C7.55871 9.31601 6.79565 8.99994 6 8.99994C5.20435 8.99994 4.44129 9.31601 3.87868 9.87862C3.31607 10.4412 3 11.2043 3 11.9999ZM15 5.99994C15 6.79559 15.3161 7.55865 15.8787 8.12126C16.4413 8.68387 17.2044 8.99994 18 8.99994C18.7956 8.99994 19.5587 8.68387 20.1213 8.12126C20.6839 7.55865 21 6.79559 21 5.99994C21 5.20429 20.6839 4.44123 20.1213 3.87862C19.5587 3.31601 18.7956 2.99994 18 2.99994C17.2044 2.99994 16.4413 3.31601 15.8787 3.87862C15.3161 4.44123 15 5.20429 15 5.99994ZM15 17.9999C15 18.7956 15.3161 19.5587 15.8787 20.1213C16.4413 20.6839 17.2044 20.9999 18 20.9999C18.7956 20.9999 19.5587 20.6839 20.1213 20.1213C20.6839 19.5587 21 18.7956 21 17.9999C21 17.2043 20.6839 16.4412 20.1213 15.8786C19.5587 15.316 18.7956 14.9999 18 14.9999C17.2044 14.9999 16.4413 15.316 15.8787 15.8786C15.3161 16.4412 15 17.2043 15 17.9999Z" stroke="#6B7280" stroke-width="2" stroke-linecap="round" stroke-linejoin="round"/>
</svg>
